<svg width="22" height="20" viewBox="0 0 22 20" fill="none" xmlns="http://www.w3.org/2000/svg">
<path d="M0.447001 14.0156C1.25816 15.4205 2.35991 16.6361 3.6786 17.5811C4.99729 18.526 6.50253 19.1786 8.09367 19.4951C9.68481 19.8116 11.3252 19.7847 12.9051 19.4163C14.485 19.048 15.9681 18.3465 17.2552 17.3589C18.5423 16.3713 19.6036 15.1203 20.3684 13.6896C21.1331 12.2588 21.5836 10.6813 21.6897 9.06245C21.7958 7.44361 21.5551 5.82077 20.9837 4.30244C20.4122 2.78411 19.5232 1.40528 18.376 0.258132L14.9697 3.66448C15.632 4.32675 16.1452 5.12278 16.4751 5.99934C16.805 6.8759 16.944 7.81279 16.8827 8.74738C16.8215 9.68197 16.5614 10.5927 16.1199 11.4187C15.6784 12.2447 15.0656 12.9669 14.3226 13.5371C13.5795 14.1073 12.7233 14.5122 11.8112 14.7249C10.8991 14.9376 9.95207 14.9531 9.03347 14.7703C8.11488 14.5876 7.24588 14.2109 6.48457 13.6654C5.72327 13.1198 5.0872 12.418 4.61891 11.6069L0.447001 14.0156Z" fill="#9ED0AB"/>
</svg>
