<svg width="25" height="32" viewBox="0 0 25 32" fill="none" xmlns="http://www.w3.org/2000/svg">
<path d="M24.2511 2.89531C22.3351 1.77146 20.2012 1.06961 17.9921 0.836688C15.783 0.603769 13.5497 0.84515 11.4414 1.54469C9.3331 2.24424 7.39844 3.38582 5.76678 4.89311C4.13512 6.4004 2.84406 8.23868 1.97991 10.285C1.11576 12.3313 0.698443 14.5386 0.755859 16.7592C0.813274 18.9797 1.3441 21.1625 2.31284 23.1614C3.28159 25.1604 4.66593 26.9295 6.3733 28.3504C8.08068 29.7714 10.0717 30.8115 12.2134 31.4011L13.9643 25.0418C12.7279 24.7013 11.5784 24.1009 10.5927 23.2805C9.60701 22.4602 8.80781 21.4389 8.24853 20.2848C7.68926 19.1308 7.3828 17.8707 7.34965 16.5887C7.31651 15.3067 7.55743 14.0324 8.05632 12.851C8.55521 11.6696 9.30057 10.6084 10.2426 9.73818C11.1845 8.86799 12.3015 8.20893 13.5186 7.80507C14.7358 7.40121 16.0251 7.26186 17.3005 7.39633C18.5758 7.53079 19.8077 7.93599 20.9139 8.58481L24.2511 2.89531Z" fill="#FEB618"/>
</svg>
