<svg width="18" height="19" viewBox="0 0 18 19" fill="none" xmlns="http://www.w3.org/2000/svg">
<g clip-path="url(#clip0_108_207)">
<path d="M12.2517 6.69034C12.2165 6.69036 12.1817 6.68344 12.1492 6.66999C12.1166 6.65654 12.0871 6.63681 12.0622 6.61193C12.0374 6.58705 12.0176 6.55752 12.0042 6.52501C11.9907 6.4925 11.9838 6.45766 11.9838 6.42248V3.9897C11.9836 3.81724 11.915 3.65189 11.7931 3.52994C11.6711 3.40799 11.5058 3.33939 11.3333 3.33919H11.0731C11.0021 3.33919 10.9339 3.31096 10.8837 3.26073C10.8335 3.2105 10.8052 3.14237 10.8052 3.07133C10.8052 3.00029 10.8335 2.93215 10.8837 2.88192C10.9339 2.83169 11.0021 2.80347 11.0731 2.80347H11.3333C11.6478 2.80383 11.9493 2.92893 12.1717 3.15131C12.3941 3.37369 12.5192 3.6752 12.5195 3.9897V6.42248C12.5195 6.49352 12.4913 6.56165 12.4411 6.61188C12.3909 6.66212 12.3227 6.69034 12.2517 6.69034Z" fill="#385B60"/>
<path d="M0.658142 3.33032H5.25002V7.9222H0.658142V3.33032Z" fill="#F5502F"/>
<path d="M0.658142 3.33032H5.25002V4.2487H0.658142V3.33032Z" fill="#F9D42F"/>
<path d="M15.8002 14.0901C15.8002 9.48075 14.1277 6.82129 14.1277 6.82129H12.8129L13.1481 9.49667C13.2201 10.0743 13.1132 10.66 12.8419 11.175C12.6005 11.6337 12.2384 12.0177 11.7947 12.2855C11.351 12.5534 10.8425 12.695 10.3242 12.6951H9.11303C8.88062 12.6951 8.65685 12.607 8.48685 12.4485C8.24175 12.22 8.08196 11.9147 8.03386 11.5831C7.98577 11.2515 8.05227 10.9134 8.22236 10.6247L8.23766 10.5989C8.38599 10.3472 8.46426 10.0605 8.46435 9.76836C8.46435 9.52479 8.36759 9.2912 8.19536 9.11897C8.02313 8.94674 7.78954 8.84998 7.54597 8.84998H4.44645C3.47218 8.84998 2.53781 9.23701 1.84889 9.92593C1.15998 10.6148 0.772949 11.5492 0.772949 12.5235V14.0901H15.8002Z" fill="#FF4415"/>
<path d="M15.4103 7.41515L12.3419 7.04459V5.79452L15.3185 5.21411L15.4103 7.41515Z" fill="#F9D42F"/>
<path d="M15.5523 7.61621C15.4305 7.61621 15.3137 7.56783 15.2276 7.48172C15.1415 7.3956 15.0931 7.27881 15.0931 7.15702V5.32027C15.0931 5.19849 15.1415 5.08169 15.2276 4.99558C15.3137 4.90946 15.4305 4.86108 15.5523 4.86108C15.6741 4.86108 15.7909 4.90946 15.877 4.99558C15.9631 5.08169 16.0115 5.19849 16.0115 5.32027V7.15702C16.0115 7.27881 15.9631 7.3956 15.877 7.48172C15.7909 7.56783 15.6741 7.61621 15.5523 7.61621Z" fill="#FB9401"/>
<path d="M12.2516 7.11121C12.6321 7.11121 12.9404 6.80283 12.9404 6.42242C12.9404 6.04202 12.6321 5.73364 12.2516 5.73364C11.8712 5.73364 11.5629 6.04202 11.5629 6.42242C11.5629 6.80283 11.8712 7.11121 12.2516 7.11121Z" fill="#537980"/>
<path d="M14.7783 17.0471C16.0065 17.0471 17.0021 16.0514 17.0021 14.8232C17.0021 13.595 16.0065 12.5994 14.7783 12.5994C13.5501 12.5994 12.5544 13.595 12.5544 14.8232C12.5544 16.0514 13.5501 17.0471 14.7783 17.0471Z" fill="#537980"/>
<path d="M14.7783 16.1288C14.52 16.1288 14.2676 16.0522 14.053 15.9087C13.8383 15.7653 13.6709 15.5614 13.5721 15.3228C13.4733 15.0843 13.4475 14.8218 13.4979 14.5686C13.5483 14.3153 13.6726 14.0827 13.8552 13.9001C14.0378 13.7176 14.2704 13.5932 14.5237 13.5429C14.7769 13.4925 15.0394 13.5184 15.2779 13.6172C15.5165 13.7161 15.7204 13.8834 15.8638 14.0981C16.0072 14.3128 16.0838 14.5652 16.0837 14.8234C16.0833 15.1695 15.9456 15.5013 15.7009 15.7461C15.4562 15.9908 15.1243 16.1284 14.7783 16.1288Z" fill="#EDEDF9"/>
<path d="M12.2166 15.0103C12.1505 15.0108 12.0851 14.997 12.0249 14.9698C11.9647 14.9426 11.9112 14.9026 11.8679 14.8527C11.8247 14.8027 11.7928 14.7439 11.7745 14.6805C11.7563 14.617 11.752 14.5503 11.762 14.485C11.885 13.7742 12.2551 13.1297 12.807 12.6651C13.3588 12.2005 14.057 11.9458 14.7784 11.9458C15.4998 11.9458 16.198 12.2005 16.7498 12.6651C17.3017 13.1297 17.6718 13.7742 17.7948 14.485C17.8048 14.5503 17.8005 14.617 17.7823 14.6805C17.764 14.7439 17.7321 14.8027 17.6889 14.8527C17.6456 14.9026 17.5921 14.9426 17.5319 14.9698C17.4717 14.997 17.4063 15.0108 17.3402 15.0103H12.2166Z" fill="#F9D42F"/>
<path d="M3.55997 17.0471C4.78816 17.0471 5.78381 16.0514 5.78381 14.8232C5.78381 13.595 4.78816 12.5994 3.55997 12.5994C2.33177 12.5994 1.33612 13.595 1.33612 14.8232C1.33612 16.0514 2.33177 17.0471 3.55997 17.0471Z" fill="#537980"/>
<path d="M3.55987 16.1288C3.30166 16.1288 3.04926 16.0522 2.83457 15.9087C2.61988 15.7653 2.45256 15.5614 2.35375 15.3228C2.25495 15.0843 2.22911 14.8218 2.27949 14.5686C2.32987 14.3153 2.45422 14.0827 2.63681 13.9001C2.8194 13.7176 3.05203 13.5932 3.30527 13.5429C3.55852 13.4925 3.82101 13.5184 4.05955 13.6172C4.29809 13.7161 4.50197 13.8834 4.6454 14.0981C4.78883 14.3128 4.86537 14.5652 4.86534 14.8234C4.86493 15.1695 4.72726 15.5013 4.48252 15.7461C4.23778 15.9908 3.90596 16.1284 3.55987 16.1288Z" fill="#EDEDF9"/>
<path d="M6.76855 15.0099H0.658135C0.588182 15.0098 0.519185 14.9937 0.45641 14.9628C0.393635 14.9319 0.338742 14.8871 0.29592 14.8318C0.253098 14.7765 0.22348 14.7121 0.209327 14.6436C0.195173 14.5751 0.196858 14.5043 0.214253 14.4365C0.450359 13.5206 0.966439 12.7012 1.69051 12.0926C2.41458 11.4841 3.31054 11.1166 4.25342 11.0416C4.70557 11.0058 5.15973 11.0786 5.57803 11.2539C5.99634 11.4293 6.36665 11.7021 6.65811 12.0496C6.94956 12.3971 7.1537 12.8093 7.25351 13.2518C7.35332 13.6942 7.3459 14.1541 7.23187 14.5931L7.21289 14.6663C7.18731 14.7647 7.1298 14.8518 7.04939 14.914C6.96898 14.9761 6.8702 15.0099 6.76855 15.0099Z" fill="#F9D42F"/>
<path d="M2.29677 13.0504C2.24154 13.0506 2.1876 13.0337 2.14235 13.002C2.0971 12.9704 2.06274 12.9255 2.04399 12.8735C2.02523 12.8216 2.023 12.7651 2.03759 12.7118C2.05218 12.6586 2.08288 12.6111 2.12549 12.576C2.32015 12.4144 2.53001 12.2721 2.75213 12.151C2.78301 12.1342 2.81689 12.1236 2.85186 12.1199C2.88682 12.1162 2.92217 12.1194 2.9559 12.1293C2.98963 12.1393 3.02107 12.1557 3.04843 12.1778C3.07579 12.1999 3.09853 12.2272 3.11535 12.258C3.13217 12.2889 3.14275 12.3228 3.14648 12.3578C3.15021 12.3927 3.14702 12.4281 3.13708 12.4618C3.12715 12.4955 3.11066 12.527 3.08858 12.5543C3.06649 12.5817 3.03923 12.6044 3.00836 12.6213C2.81669 12.7259 2.63564 12.849 2.46774 12.9886C2.41972 13.0285 2.35923 13.0504 2.29677 13.0504Z" fill="#FB9401"/>
<path d="M8.23475 9.29993H2.89026C2.70758 9.29993 2.53239 9.22736 2.40322 9.09819C2.27405 8.96902 2.20148 8.79382 2.20148 8.61115C2.20148 8.42847 2.27405 8.25327 2.40322 8.1241C2.53239 7.99493 2.70758 7.92236 2.89026 7.92236H8.23475C8.41742 7.92236 8.59262 7.99493 8.72179 8.1241C8.85096 8.25327 8.92353 8.42847 8.92353 8.61115C8.92353 8.79382 8.85096 8.96902 8.72179 9.09819C8.59262 9.22736 8.41742 9.29993 8.23475 9.29993Z" fill="#F9D42F"/>
<path d="M11.073 3.98958C10.9512 3.98958 10.8344 3.94121 10.7483 3.85509C10.6622 3.76898 10.6138 3.65218 10.6138 3.5304V2.61202C10.6138 2.49024 10.6622 2.37344 10.7483 2.28733C10.8344 2.20121 10.9512 2.15283 11.073 2.15283C11.1948 2.15283 11.3116 2.20121 11.3977 2.28733C11.4838 2.37344 11.5322 2.49024 11.5322 2.61202V3.5304C11.5322 3.65218 11.4838 3.76898 11.3977 3.85509C11.3116 3.94121 11.1948 3.98958 11.073 3.98958Z" fill="#EDEDF9"/>
</g>
<defs>
<clipPath id="clip0_108_207">
<rect width="17.6" height="17.6" fill="white" transform="translate(0.200012 0.800049)"/>
</clipPath>
</defs>
</svg>
