<svg width="201" height="201" viewBox="0 0 201 201" fill="none" xmlns="http://www.w3.org/2000/svg">
<path d="M157.884 133.825L147.558 131.058L138.058 166.514L148.383 169.281C157.569 171.742 167.02 166.243 169.498 156.996L170.026 155.027C172.505 145.774 167.069 136.286 157.884 133.825ZM163.627 154.947C162.251 160.082 156.996 163.14 151.893 161.773L146.154 160.235L151.431 140.538L157.171 142.076C162.274 143.443 165.296 148.718 163.92 153.854L163.627 154.947Z" fill="white"/>
<path d="M170.588 148.118C170.513 148.474 170.436 148.835 170.34 149.192L169.806 151.187C167.295 160.557 157.816 166.157 148.631 163.696L139.47 161.241L138.057 166.514L148.383 169.281C157.569 171.742 167.047 166.143 169.558 156.772L170.093 154.777C170.693 152.538 170.837 150.283 170.588 148.118Z" fill="#D9D9D9"/>
<path d="M151.474 140.188L157.195 141.721C160.653 142.648 163.143 145.407 163.94 148.71L164.126 148.017C165.516 142.828 162.52 137.512 157.434 136.149L151.716 134.617L146.382 154.522L147.543 154.833L151.468 140.186L151.474 140.188Z" fill="#D9D9D9"/>
<path d="M12.2358 112.748L11.7082 114.716C9.23058 123.963 14.6663 133.451 23.8519 135.913L34.1775 138.679L43.6779 103.223L33.3583 100.458C24.1711 98.003 14.7134 103.501 12.2358 112.748ZM18.109 114.791C19.4851 109.655 24.7405 106.598 29.8423 107.965L35.5812 109.502L30.3034 129.199L24.5645 127.662C19.4628 126.295 16.4401 121.019 17.8163 115.883L18.109 114.791Z" fill="white"/>
<path d="M15.1969 106.481C15.0844 106.827 14.9703 107.178 14.8747 107.535L14.3401 109.53C11.8294 118.9 17.2401 128.49 26.4276 130.951L35.5904 133.406L34.1775 138.679L23.8556 135.914C14.6682 133.452 9.25729 123.863 11.7681 114.493L12.3028 112.497C12.8968 110.257 13.8996 108.232 15.1969 106.481Z" fill="#D9D9D9"/>
<path d="M35.7278 109.174L30.0078 107.641C26.5491 106.715 23.0132 107.86 20.6645 110.319L20.8501 109.627C22.2407 104.437 27.4935 101.331 32.5782 102.694L38.2978 104.226L32.9643 124.132L31.8033 123.82L35.7278 109.174Z" fill="#D9D9D9"/>
<path d="M151.102 155.602C150.358 152.87 149.724 150.121 150.645 147.355C152 143.292 157.353 134.388 160.655 131.901L94.3107 124.362C94.3107 124.362 33.2544 97.9839 33.1926 97.9674C34.4127 98.3805 34.0325 110.43 34.1012 111.588C34.4774 117.634 30.6308 121.709 26.8786 126.076C22.1355 131.584 20.9445 136.823 23.6775 143.834C27.1003 152.616 34.7352 160.234 42.6751 165.074C53.9667 171.959 66.7648 176.301 79.4745 179.707C98.4804 184.8 137.983 194.138 150.343 171.108C152.374 167.327 152.886 163.152 151.977 158.969C151.732 157.844 151.408 156.724 151.102 155.602Z" fill="white"/>
<path d="M83.387 167.437C70.6774 164.032 57.8785 159.69 46.5861 152.806C38.6459 147.967 31.0099 140.351 27.5855 131.572C26.9272 129.883 26.5004 128.297 26.2919 126.788C22.042 132.045 21.052 137.13 23.6724 143.842C27.0968 152.621 34.7327 160.237 42.673 165.076C53.9653 171.959 66.7642 176.301 79.4739 179.707C98.4804 184.8 137.985 194.139 150.342 171.12C151.908 168.202 152.567 165.047 152.369 161.837C138.286 181.015 101.512 172.294 83.387 167.437Z" fill="#D9D9D9"/>
<path d="M150.895 147.335C151.53 145.436 153.05 142.468 154.815 139.606C154.839 139.565 154.863 139.526 154.887 139.486C155.296 138.82 155.725 138.165 156.155 137.531C157.794 135.113 159.507 132.985 160.873 131.959L156.408 131.446C155.687 132.85 155.119 134.124 154.787 135.116C154.733 135.267 154.691 135.422 154.65 135.576C153.231 133.97 151.358 132.301 149.053 130.602L94.5927 124.377C94.5927 124.377 61.1278 109.947 43.7401 102.45C41.552 102.699 39.5985 103.064 37.8886 103.541C38.1891 102.468 38.3522 101.338 38.344 100.129C35.3399 98.8332 33.5156 98.0459 33.5096 98.0443C34.1387 98.2527 34.3444 101.53 34.4064 104.822C34.4656 107.928 34.3949 111.046 34.4308 111.606C34.5577 113.589 34.2174 115.355 33.5802 116.988C41.6174 125.659 63.0582 135.973 89.3825 143.027C115.614 150.055 139.265 151.851 150.606 148.411C150.688 148.055 150.778 147.694 150.895 147.335Z" fill="#541210"/>
<path d="M156.42 131.449C155.7 132.853 155.132 134.127 154.799 135.118C154.745 135.269 154.704 135.424 154.663 135.578C154.365 135.247 154.05 134.911 153.717 134.569C153.126 135.757 152.648 136.842 152.363 137.707C152.241 138.065 152.149 138.432 152.079 138.791C140.738 142.229 117.086 140.433 90.8539 133.404C64.5283 126.35 43.086 116.037 35.0479 107.367C35.685 105.734 36.0188 103.967 35.8983 101.986C35.8772 101.668 35.89 100.552 35.8938 99.0741C34.3786 98.4232 33.514 98.052 33.508 98.0503C34.1371 98.2587 34.3429 101.536 34.4052 104.827C34.4645 107.932 34.3939 111.05 34.43 111.609C34.5569 113.592 34.2172 115.358 33.5802 116.99C41.6177 125.661 63.06 135.974 89.3856 143.028C115.618 150.057 139.27 151.853 150.612 148.415C150.682 148.056 150.772 147.695 150.896 147.331C151.531 145.433 153.051 142.466 154.815 139.604C154.839 139.564 154.863 139.524 154.887 139.484C155.297 138.818 155.726 138.164 156.155 137.53C157.792 135.111 159.507 132.985 160.873 131.959L156.42 131.449Z" fill="#3F100D"/>
<path d="M157.178 133.713C156.748 134.347 156.318 135.008 155.91 135.668C155.886 135.707 155.862 135.747 155.838 135.788C154.067 138.647 152.547 141.615 151.918 143.514C151.796 143.873 151.704 144.24 151.635 144.598C140.293 148.036 116.641 146.24 90.4082 139.211C64.0826 132.157 42.6403 121.844 34.6028 113.174C35.2398 111.541 35.5735 109.774 35.4526 107.793C35.4165 107.233 35.4871 104.116 35.4278 101.011C35.4118 100.277 35.3893 99.542 35.3569 98.8442C34.1763 98.3354 33.514 98.052 33.508 98.0503C34.1371 98.2587 34.3429 101.536 34.4052 104.827C34.4645 107.932 34.3939 111.05 34.43 111.609C34.5569 113.592 34.2172 115.358 33.5802 116.99C41.6177 125.661 63.06 135.974 89.3856 143.028C115.618 150.057 139.27 151.853 150.612 148.415C150.682 148.056 150.772 147.695 150.896 147.331C151.531 145.433 153.051 142.466 154.815 139.604C154.839 139.564 154.863 139.524 154.887 139.484C155.297 138.818 155.726 138.164 156.155 137.53C157.792 135.111 159.507 132.985 160.873 131.959L158.616 131.699C158.139 132.334 157.652 133.005 157.178 133.713Z" fill="#541210"/>
<path d="M92.7175 131.698C127.873 141.117 158.387 141.234 160.873 131.959C163.358 122.683 136.873 107.527 101.718 98.1076C66.5623 88.6877 36.0481 88.5706 33.5627 97.8462C31.0773 107.122 57.5619 122.278 92.7175 131.698Z" fill="#F1F1F1"/>
<path d="M94.1397 127.634C125.803 136.118 152.976 137.379 154.832 130.451C156.688 123.523 132.525 111.029 100.862 102.545C69.1993 94.0611 42.0263 92.7997 40.1699 99.7277C38.3136 106.656 62.4768 119.15 94.1397 127.634Z" fill="#FF4415"/>
<path d="M42.8972 105.014C52.4394 102.634 74.1241 104.941 98.4721 111.465C122.82 117.989 142.753 126.833 149.826 133.666C152.692 132.947 154.467 131.812 154.888 130.242C156.713 123.43 132.522 111.028 100.862 102.545C69.2028 94.062 42.0513 92.7064 40.226 99.5187C39.7978 101.093 40.768 102.964 42.8972 105.014Z" fill="#B3B3B3"/>
<path opacity="0.2" d="M78.283 103.197C78.283 103.197 57.5848 101.199 66.4964 79.8228C75.4065 58.4525 95.2015 74.395 104.705 52.1162C110.273 39.0698 104.033 26.1427 97.9043 17.6687C96.8711 16.2383 98.6849 14.4824 100.059 15.5804C112.34 25.3773 129.502 42.9684 119.51 58.9154C104.677 82.6051 73.8032 69.7225 78.283 103.197Z" fill="#FEDCA2"/>
<path opacity="0.2" d="M104.016 108.378C104.016 108.378 90.3176 107.045 96.1999 92.9662C102.082 78.8875 115.189 89.4108 121.464 74.7383C125.143 66.1417 120.996 57.6195 116.937 52.0309C116.255 51.0888 117.454 49.9318 118.36 50.6604C126.498 57.1225 137.87 68.7335 131.27 79.2365C121.469 94.8293 101.027 86.3157 104.016 108.378Z" fill="#FEDCA2"/>
<path d="M85.5708 111.45C84.3098 111.092 83.0682 110.663 81.8686 110.153C78.7144 108.822 73.0829 106.737 67.3318 107.132C59.2896 107.691 83.2197 114.887 74.7888 113.845C66.3589 112.798 47.3351 105.207 48.9102 108.485C50.4852 111.763 87.6674 124.369 93.2201 124.639C98.7715 124.915 71.548 117.478 75.7728 116.253C80.0035 115.029 100.822 119.966 94.0838 115.66C89.8255 112.94 87.0404 111.869 85.5708 111.45Z" fill="#FF633C"/>
<path d="M104.535 125.951C104.535 125.951 92.3057 122.864 92.4669 120.227C92.6287 117.59 116.149 117.473 124.568 123.272C132.988 129.071 104.058 118.927 110.34 123.578C110.34 123.578 117.05 129.683 104.535 125.951Z" fill="#CF3B16"/>
<path d="M120.728 129.492C120.728 129.492 113.626 128.525 113.048 125.644C112.472 122.756 142.543 131.412 133.771 131.196C124.992 130.978 120.728 129.492 120.728 129.492Z" fill="#CF3B16"/>
<path opacity="0.28" d="M142.772 132.334C142.698 132.585 142.49 132.768 142.27 132.895C142.045 133.02 141.796 133.106 141.553 133.173C141.054 133.304 140.541 133.365 140.032 133.409C139.004 133.491 137.98 133.481 136.949 133.444C134.891 133.362 132.848 133.153 130.801 132.903C126.716 132.398 122.653 131.74 118.61 130.981C110.517 129.489 102.476 127.705 94.4917 125.685C86.5093 123.659 78.572 121.439 70.7348 118.868C66.8272 117.557 62.9297 116.181 59.1005 114.598C57.188 113.801 55.2868 112.96 53.4267 111.991C52.4972 111.504 51.5743 110.991 50.6661 110.377C50.2135 110.063 49.766 109.732 49.329 109.31C49.1091 109.092 48.8943 108.855 48.6916 108.523C48.5048 108.208 48.2775 107.696 48.4294 107.055C48.6127 106.421 49.0713 106.094 49.3906 105.914C49.7324 105.727 50.0367 105.63 50.3361 105.551C50.9255 105.404 51.4791 105.34 52.0276 105.295C53.1154 105.216 54.1709 105.234 55.2256 105.278C57.3251 105.377 59.386 105.598 61.4427 105.857C65.5518 106.395 69.6133 107.159 73.6535 107.976C81.7292 109.656 89.7174 111.71 97.6356 113.952C105.559 116.201 113.416 118.67 121.17 121.43C125.05 122.795 128.898 124.256 132.687 125.861C134.579 126.666 136.46 127.508 138.283 128.467C139.194 128.95 140.091 129.455 140.935 130.039C141.36 130.332 141.766 130.646 142.134 131.003C142.318 131.185 142.484 131.382 142.616 131.603C142.745 131.816 142.833 132.079 142.772 132.334ZM142.772 132.334C142.833 132.079 142.745 131.816 142.61 131.601C142.477 131.38 142.304 131.188 142.127 131.007C141.759 130.651 141.344 130.341 140.92 130.048C140.068 129.469 139.168 128.97 138.262 128.495C136.436 127.548 134.559 126.714 132.657 125.926C128.859 124.352 124.979 122.988 121.083 121.678C113.272 119.109 105.352 116.9 97.3872 114.879C89.4219 112.864 81.399 111.085 73.3312 109.599C69.3009 108.844 65.256 108.191 61.2039 107.688C59.1779 107.437 57.1508 107.238 55.1389 107.156C54.1357 107.119 53.1298 107.114 52.1697 107.189C51.6954 107.228 51.2208 107.292 50.8156 107.396C50.6161 107.448 50.4377 107.52 50.3221 107.581C50.1981 107.648 50.2348 107.684 50.2712 107.548C50.3016 107.411 50.2518 107.423 50.3254 107.542C50.3888 107.653 50.5139 107.805 50.6606 107.95C50.9597 108.242 51.3382 108.537 51.7296 108.807C52.5224 109.357 53.3975 109.85 54.2848 110.32C56.0681 111.255 57.923 112.096 59.8031 112.891C63.5614 114.488 67.3926 115.939 71.2613 117.3C78.9912 120.047 86.8295 122.512 94.7343 124.756C102.642 126.987 110.606 129.035 118.655 130.715C122.683 131.529 126.726 132.288 130.803 132.823C132.839 133.084 134.887 133.301 136.942 133.395C137.971 133.439 138.999 133.456 140.02 133.379C140.535 133.337 141.042 133.275 141.546 133.152C141.795 133.085 142.035 133.004 142.261 132.879C142.49 132.768 142.698 132.585 142.772 132.334Z" fill="#D4918E"/>
<path opacity="0.28" d="M71.8592 113.334C71.9545 113.076 72.246 112.982 72.4855 112.908C72.7419 112.845 73.0043 112.81 73.2693 112.788C73.7995 112.746 74.3247 112.748 74.8576 112.772C75.9118 112.81 76.9679 112.915 78.0177 113.045C80.1175 113.304 82.2044 113.659 84.2818 114.051C88.4394 114.822 92.577 115.745 96.6839 116.78C100.788 117.827 104.869 118.96 108.899 120.284C110.906 120.96 112.91 121.675 114.876 122.485C115.858 122.893 116.841 123.322 117.799 123.817C118.278 124.064 118.755 124.323 119.222 124.639C119.453 124.793 119.684 124.975 119.909 125.18C120.022 125.302 120.133 125.411 120.239 125.585C120.339 125.736 120.445 126.009 120.38 126.328C120.277 126.637 120.054 126.821 119.886 126.902C119.706 127.005 119.555 127.044 119.398 127.087C119.099 127.159 118.81 127.193 118.533 127.212C117.97 127.252 117.428 127.239 116.889 127.213C115.812 127.162 114.752 127.043 113.692 126.904C111.579 126.621 109.492 126.24 107.415 125.822C103.261 124.96 99.1542 123.899 95.083 122.755C91.0089 121.598 86.9704 120.33 82.9777 118.918C80.9827 118.219 78.998 117.482 77.0498 116.657C76.0759 116.244 75.1088 115.807 74.1767 115.313C73.7091 115.069 73.2472 114.807 72.8093 114.505C72.5905 114.354 72.3808 114.192 72.1903 114.009C72.0125 113.83 71.8128 113.605 71.8592 113.334ZM71.8592 113.334C71.8194 113.606 72.0201 113.825 72.1963 114.011C72.3886 114.187 72.5981 114.349 72.8171 114.5C73.257 114.797 73.7141 115.051 74.1893 115.29C75.1308 115.773 76.0952 116.196 77.0722 116.597C79.0254 117.404 81.0167 118.116 83.0184 118.79C87.0342 120.117 91.1087 121.248 95.2022 122.286C99.2972 123.317 103.421 124.238 107.567 125.006C109.638 125.396 111.718 125.755 113.799 126.009C114.835 126.135 115.886 126.238 116.92 126.278C117.434 126.297 117.951 126.304 118.449 126.259C118.694 126.239 118.929 126.203 119.148 126.157C119.244 126.122 119.344 126.097 119.392 126.064C119.468 126.031 119.426 126.013 119.422 126.078C119.393 126.136 119.432 126.14 119.389 126.076C119.364 126.023 119.285 125.943 119.224 125.873C119.064 125.725 118.878 125.576 118.67 125.435C118.265 125.154 117.816 124.896 117.355 124.653C116.44 124.171 115.485 123.737 114.518 123.326C112.588 122.506 110.61 121.771 108.619 121.08C104.645 119.672 100.613 118.407 96.5509 117.252C92.4855 116.11 88.3927 115.046 84.2516 114.188C82.1808 113.771 80.1004 113.392 78.0054 113.114C76.9575 112.978 75.9062 112.855 74.8554 112.804C74.3307 112.776 73.8011 112.766 73.2721 112.802C73.0087 112.817 72.7463 112.853 72.4899 112.915C72.2444 112.988 71.9545 113.076 71.8592 113.334Z" fill="#D4918E"/>
<path d="M96.8506 121.249C96.8506 121.249 100.241 108.005 118.935 108.499C118.935 108.499 114.408 125.097 96.8506 121.249Z" fill="#FEC460"/>
<path d="M118.108 108.495C116.291 112.681 110.717 121.899 97.5568 119.428C97.039 120.522 96.8506 121.249 96.8506 121.249C114.408 125.097 118.934 108.499 118.934 108.499C118.645 108.494 118.379 108.495 118.108 108.495Z" fill="#E2AD51"/>
<path d="M97.8873 121.527C97.8873 121.527 101.572 108.361 85.3445 99.4984C85.3505 99.5 80.9648 116.136 97.8873 121.527Z" fill="#FEC460"/>
<path d="M86.0527 99.9057C85.5253 104.438 85.7096 115.198 98.1887 119.597C98.0877 120.803 97.8873 121.527 97.8873 121.527C80.9648 116.136 85.3445 99.4984 85.3445 99.4984C85.5904 99.6299 85.821 99.771 86.0527 99.9057Z" fill="#E2AD51"/>
<path d="M78.4087 110.454C78.4087 110.454 77.1768 107.134 72.6569 107.868C72.6569 107.868 77.1778 108.684 77.2246 110.212L78.4087 110.454Z" fill="#6CAA62"/>
<path d="M97.5093 125.426C97.5093 125.426 96.6338 122.29 91.9251 122.214C91.9251 122.214 96.4525 123.658 96.326 125.021L97.5093 125.426Z" fill="#6CAA62"/>
<path d="M120.314 122.425C120.314 122.425 119.439 119.289 114.73 119.213C114.73 119.213 119.258 120.657 119.131 122.02L120.314 122.425Z" fill="#6CAA62"/>
<path d="M115.471 125.572C115.471 125.572 115.232 128.614 119.407 129.96C119.407 129.96 115.839 127.436 116.39 126.253L115.471 125.572Z" fill="#6CAA62"/>
<path d="M52.7637 109.955C52.7637 109.955 51.9615 104.468 47.1887 106.709C47.1887 106.709 51.7392 107.154 51.5776 109.785L52.7637 109.955Z" fill="#6CAA62"/>
<path d="M51.5764 109.784L52.7614 109.963C52.7614 109.963 52.727 109.75 52.63 109.427L51.9995 109.331C52.0947 107.437 49.4524 106.703 48.2102 106.469C47.8815 106.545 47.5309 106.656 47.1588 106.821C47.1467 106.817 51.6955 107.311 51.5764 109.784Z" fill="#52804B"/>
<path d="M67.7506 112.118C67.7506 112.118 65.9607 117.005 71.3623 117.676C71.3623 117.676 67.3933 114.935 68.7596 112.878L67.7506 112.118Z" fill="#6CAA62"/>
<path d="M137.813 128.447C137.813 128.447 137.649 131.303 142.011 132.683C142.011 132.683 138.246 130.21 138.784 129.113L137.813 128.447Z" fill="#6CAA62"/>
<path d="M66.654 101.249C66.654 101.249 63.4399 97.776 58.0531 99.6343C54.0834 101.004 55.4964 105.499 55.884 106.806C56.2711 108.113 58.6215 111.326 64.1006 109.609C69.5735 107.89 66.654 101.249 66.654 101.249Z" fill="#D3BC8A"/>
<path d="M57.1743 103.952C57.1497 102.573 57.9722 101.317 59.2159 100.799C60.5473 100.243 62.6875 99.6906 64.9474 100.502C68.6843 101.84 68.7525 107.13 66.5119 109.138C64.2714 111.146 59.2751 109.752 58.6206 108.637C58.1721 107.857 57.2123 105.871 57.1743 103.952Z" fill="#F4E0B0"/>
<path d="M61.0454 103.099C60.9995 103.27 60.8221 103.373 60.651 103.327C60.4799 103.281 60.3775 103.103 60.4233 102.932C60.4692 102.761 60.6466 102.659 60.8177 102.705C60.9931 102.752 61.0912 102.928 61.0454 103.099Z" fill="#D3BC8A"/>
<path d="M66.2697 105.166C66.2238 105.337 65.9525 105.414 65.668 105.338C65.3833 105.261 65.1871 105.059 65.2329 104.888C65.2788 104.717 65.55 104.639 65.8346 104.716C66.1254 104.798 66.3155 104.995 66.2697 105.166Z" fill="#D3BC8A"/>
<path d="M61.5726 107.352C61.7443 107.398 61.9583 107.156 62.0503 106.813C62.1423 106.47 62.0777 106.154 61.906 106.108C61.7343 106.062 61.5203 106.303 61.4283 106.646C61.3363 106.99 61.401 107.306 61.5726 107.352Z" fill="#D3BC8A"/>
<path d="M64.4056 102.999C64.7489 103.091 65.1023 102.887 65.1943 102.544C65.2863 102.201 65.0823 101.847 64.7389 101.755C64.3956 101.663 64.0422 101.867 63.9502 102.211C63.8582 102.554 64.0622 102.907 64.4056 102.999Z" fill="#D3BC8A"/>
<path d="M65.5529 109.085C65.7245 109.131 65.9012 109.029 65.9472 108.857C65.9932 108.685 65.8912 108.509 65.7195 108.463C65.5478 108.417 65.3712 108.519 65.3252 108.69C65.2792 108.862 65.3812 109.039 65.5529 109.085Z" fill="#D3BC8A"/>
<path d="M54.9261 109.349C54.9261 109.349 56.7213 106.224 59.853 106.505C62.9855 106.786 62.5531 110.128 65.4203 108.326C68.2878 106.525 70.4837 113.491 70.4837 113.491L54.9261 109.349Z" fill="#CF3B16"/>
<path opacity="0.28" d="M56.3369 109.06C56.8028 108.714 57.3162 108.428 57.8579 108.181C58.1273 108.064 58.4161 107.97 58.7168 107.904C59.016 107.843 59.3361 107.8 59.6746 107.879C60.3288 108.054 60.7903 108.49 61.254 108.847C61.7131 109.221 62.1602 109.592 62.6606 109.836C63.1558 110.098 63.7094 110.215 64.2474 110.151C64.7897 110.094 65.2407 109.78 65.7855 109.498C65.9208 109.423 66.0835 109.369 66.2576 109.343C66.4352 109.329 66.6287 109.35 66.7797 109.434C67.0914 109.59 67.2901 109.809 67.5127 110.01C67.9312 110.44 68.3177 110.893 68.5971 111.408C68.2317 110.949 67.8164 110.532 67.3601 110.17C67.1312 109.993 66.8979 109.784 66.6717 109.692C66.4351 109.592 66.205 109.659 65.9688 109.797C65.512 110.086 64.9786 110.469 64.3276 110.57C63.6864 110.662 63.0177 110.519 62.4587 110.229C61.8944 109.937 61.4279 109.542 60.9777 109.159C60.5337 108.776 60.0941 108.377 59.5934 108.206C59.0926 108.059 58.4872 108.21 57.9513 108.384C57.3916 108.553 56.8575 108.795 56.3369 109.06Z" fill="#D4918E"/>
<path d="M77.0442 118.602C77.0442 118.602 79.2324 119.452 81.3404 117.324C82.894 115.757 81.3358 114.017 80.8907 113.501C80.4458 112.986 78.7151 112.055 76.5364 114.137C74.3518 116.217 77.0442 118.602 77.0442 118.602Z" fill="#D3BC8A"/>
<path d="M81.0893 115.331C81.4287 115.973 81.3074 116.744 80.8102 117.274C80.2755 117.836 79.338 118.577 78.019 118.698C75.8435 118.911 74.5732 116.434 75.2171 114.986C75.8614 113.539 78.6804 113.072 79.2746 113.455C79.6739 113.715 80.6181 114.436 81.0893 115.331Z" fill="#F4E0B0"/>
<path d="M77.7685 117.948C77.733 117.772 77.85 117.609 78.0255 117.573C78.2012 117.536 78.3625 117.654 78.3984 117.83C78.4338 118.006 78.3168 118.169 78.1413 118.205C77.9678 118.233 77.7956 118.122 77.7685 117.948Z" fill="#D3BC8A"/>
<path d="M73.3556 117.702C73.3556 117.702 75.8904 115.111 77.2036 116.057C78.5137 116.993 79.3225 117.732 80.3191 117.149C81.3156 116.565 82.7471 120.803 82.7471 120.803L73.3556 117.702Z" fill="#CF3B16"/>
<path opacity="0.28" d="M75.4422 116.549C75.8361 116.404 76.4 116.384 76.9232 116.59C77.1939 116.685 77.4053 116.852 77.5848 116.944C77.7741 117.047 77.9835 117.147 78.1992 117.226C78.6275 117.394 79.0902 117.531 79.528 117.591C79.6366 117.603 79.7464 117.61 79.821 117.6C79.9384 117.578 80.1295 117.577 80.2664 117.632C80.5436 117.749 80.7024 117.919 80.808 118.088C80.6276 117.951 80.4142 117.816 80.2133 117.779C80.1135 117.761 80.0577 117.773 79.9637 117.805C79.8273 117.847 79.6957 117.847 79.5583 117.845C79.0309 117.827 78.5156 117.689 78.0316 117.507C77.7895 117.406 77.556 117.296 77.3417 117.164C77.1119 117.014 76.9675 116.892 76.7821 116.799C76.4044 116.614 75.9149 116.527 75.4422 116.549Z" fill="#D4918E"/>
<path d="M123.803 130.458C123.803 130.458 128.41 132.191 132.71 128.237C135.879 125.323 132.526 121.915 131.57 120.91C130.614 119.905 126.946 118.031 122.502 121.907C118.053 125.773 123.803 130.458 123.803 130.458Z" fill="#D3BC8A"/>
<path d="M131.84 124.395C132.446 125.601 132.221 127.061 131.299 128.053C130.309 129.12 128.58 130.521 126.166 130.782C122.176 131.207 119.88 126.574 121.089 123.843C122.299 121.112 127.464 120.194 128.542 120.9C129.276 121.38 131.001 122.724 131.84 124.395Z" fill="#F4E0B0"/>
<path d="M128.218 126.351C128.11 126.157 128.29 126.008 128.625 126.018C128.952 126.026 129.303 126.19 129.409 126.388C129.517 126.581 129.337 126.73 129.001 126.72C128.665 126.71 128.317 126.541 128.218 126.351Z" fill="#D3BC8A"/>
<path d="M122.988 126.791C122.866 126.649 123.031 126.561 123.359 126.596C123.679 126.628 124.036 126.771 124.156 126.916C124.278 127.058 124.114 127.146 123.785 127.111C123.456 127.076 123.11 126.933 122.988 126.791Z" fill="#D3BC8A"/>
<path d="M125.981 123.086C125.873 122.892 126.054 122.743 126.389 122.752C126.716 122.76 127.067 122.924 127.173 123.122C127.281 123.316 127.1 123.466 126.765 123.456C126.43 123.442 126.08 123.278 125.981 123.086Z" fill="#D3BC8A"/>
<path d="M125.197 128.46C125.155 128.12 125.363 127.781 125.665 127.702C125.961 127.622 126.233 127.835 126.272 128.184C126.315 128.524 126.106 128.863 125.804 128.941C125.508 129.022 125.236 128.808 125.197 128.46Z" fill="#D3BC8A"/>
<path d="M121.143 123.6C121.152 123.271 121.316 122.919 121.514 122.812C121.707 122.703 121.856 122.885 121.846 123.222C121.837 123.549 121.673 123.901 121.475 124.009C121.284 124.108 121.131 123.926 121.143 123.6Z" fill="#D3BC8A"/>
<path d="M118.421 127.003C118.421 127.003 121.07 123.488 125.227 126.04C129.384 128.591 126.918 129.01 131.254 130.172C135.59 131.334 122.201 132.727 118.421 127.003Z" fill="#CF3B16"/>
<path opacity="0.49" d="M119.659 127.36C120.165 126.937 120.854 126.682 121.581 126.569C122.309 126.452 123.087 126.512 123.83 126.7C124.568 126.909 125.256 127.236 125.861 127.65C126.168 127.854 126.431 128.099 126.707 128.322C126.955 128.575 127.197 128.831 127.415 129.099C127.098 128.909 126.81 128.711 126.52 128.513C126.211 128.342 125.921 128.149 125.608 127.989C124.992 127.665 124.355 127.395 123.693 127.212C122.372 126.869 120.962 126.903 119.659 127.36Z" fill="#D4918E"/>
<path d="M107.109 126.657C107.109 126.657 109.297 127.508 111.405 125.38C112.959 123.813 111.401 122.073 110.956 121.557C110.511 121.041 108.78 120.111 106.601 122.193C104.415 124.279 107.109 126.657 107.109 126.657Z" fill="#D3BC8A"/>
<path d="M111.198 123.398C111.489 124.028 111.359 124.796 110.896 125.335C110.398 125.908 109.532 126.667 108.337 126.822C106.366 127.09 105.283 124.663 105.902 123.208C106.521 121.754 109.08 121.218 109.607 121.582C109.961 121.83 110.796 122.522 111.198 123.398Z" fill="#F4E0B0"/>
<path d="M106.757 125.046C106.721 124.87 106.838 124.709 107.013 124.673C107.189 124.637 107.35 124.754 107.386 124.929C107.422 125.105 107.305 125.266 107.13 125.302C106.954 125.338 106.784 125.219 106.757 125.046Z" fill="#D3BC8A"/>
<path d="M107.823 125.998C107.813 125.83 107.907 125.662 108.031 125.612C108.155 125.563 108.257 125.663 108.267 125.832C108.277 126.001 108.183 126.168 108.059 126.218C107.935 126.268 107.834 126.167 107.823 125.998Z" fill="#D3BC8A"/>
<path d="M102.03 125.97C102.03 125.97 104.535 123.469 105.849 124.396C107.157 125.315 107.967 126.039 108.955 125.478C109.943 124.918 111.701 128.031 111.701 128.031L102.03 125.97Z" fill="#CF3B16"/>
<path opacity="0.49" d="M103.3 125.378C103.44 125.128 103.657 124.91 103.962 124.768C104.261 124.622 104.729 124.629 105.068 124.82C105.675 125.17 106.119 125.539 106.635 125.821C106.885 125.97 107.137 126.081 107.371 126.125C107.56 126.176 107.932 126.106 108.26 126.151C108.594 126.172 108.925 126.235 109.25 126.341C109.407 126.401 109.571 126.464 109.713 126.558C109.853 126.652 109.982 126.793 109.993 126.94C109.807 126.69 109.481 126.665 109.194 126.632C108.898 126.603 108.593 126.609 108.298 126.63C108.15 126.641 108.009 126.659 107.867 126.677C107.753 126.697 107.5 126.723 107.318 126.699C106.927 126.65 106.592 126.498 106.297 126.331C105.722 125.996 105.225 125.556 104.798 125.21C104.425 124.904 103.793 125.048 103.3 125.378Z" fill="#D4918E"/>
<path d="M94.9315 116.28C94.9315 116.28 98.1764 117.52 101.255 114.539C103.53 112.342 101.192 109.843 100.526 109.108C99.8606 108.374 97.2847 107.022 94.095 109.94C90.9109 112.86 94.9315 116.28 94.9315 116.28Z" fill="#D3BC8A"/>
<path d="M100.628 111.442C101.077 112.372 100.901 113.499 100.199 114.272C99.4491 115.101 98.1338 116.197 96.304 116.408C93.2884 116.76 91.5767 113.184 92.5005 111.063C93.4249 108.942 97.3409 108.206 98.146 108.744C98.7047 109.121 99.9969 110.154 100.628 111.442Z" fill="#F4E0B0"/>
<path d="M98.3626 113.24C98.3294 113.063 98.4489 112.895 98.6237 112.867C98.8 112.834 98.9661 112.953 98.9937 113.129C99.027 113.306 98.9075 113.473 98.7327 113.501C98.5635 113.53 98.3959 113.416 98.3626 113.24Z" fill="#D3BC8A"/>
<path d="M94.1858 113.899C94.1525 113.722 94.2722 113.554 94.447 113.526C94.6233 113.493 94.7894 113.612 94.817 113.787C94.8501 113.965 94.7306 114.132 94.5558 114.16C94.3865 114.19 94.2205 114.07 94.1858 113.899Z" fill="#D3BC8A"/>
<path d="M96.2567 111.146C96.2653 110.813 96.4341 110.462 96.6274 110.365C96.8239 110.256 96.9714 110.445 96.9574 110.776C96.9489 111.109 96.78 111.46 96.5867 111.557C96.3959 111.667 96.2483 111.479 96.2567 111.146Z" fill="#D3BC8A"/>
<path d="M95.8853 115.02C95.8521 114.843 95.9716 114.676 96.1464 114.648C96.3227 114.615 96.4888 114.734 96.5164 114.909C96.5497 115.086 96.4302 115.254 96.2554 115.281C96.0862 115.311 95.9186 115.197 95.8853 115.02Z" fill="#D3BC8A"/>
<path d="M93.1382 111.174C93.1049 110.997 93.2246 110.829 93.3994 110.801C93.5757 110.768 93.7418 110.887 93.7694 111.062C93.8025 111.24 93.683 111.407 93.5082 111.435C93.3389 111.465 93.1729 111.345 93.1382 111.174Z" fill="#D3BC8A"/>
<path d="M134.732 132.066C135.247 132.204 135.74 132.037 135.832 131.694C135.924 131.35 135.58 130.96 135.065 130.822C134.55 130.684 134.057 130.85 133.965 131.194C133.873 131.537 134.217 131.928 134.732 132.066Z" fill="#E29E25"/>
<path d="M72.3322 111.568C72.2396 111.914 71.8888 112.116 71.5435 112.023C71.1983 111.931 70.9955 111.581 71.0882 111.235C71.1806 110.89 71.5316 110.687 71.8768 110.779C72.2191 110.863 72.4247 111.223 72.3322 111.568Z" fill="#E29E25"/>
<path d="M57.3696 112.67C57.2769 113.016 56.7874 113.181 56.2699 113.042C55.7524 112.904 55.4108 112.516 55.5035 112.17C55.596 111.825 56.0856 111.66 56.6032 111.798C57.1227 111.93 57.4621 112.325 57.3696 112.67Z" fill="#E29E25"/>
<path d="M87.7274 118.804C87.6347 119.15 87.2839 119.352 86.9387 119.26C86.5934 119.167 86.3906 118.817 86.4833 118.471C86.5758 118.126 86.9267 117.923 87.272 118.016C87.6192 118.101 87.8198 118.459 87.7274 118.804Z" fill="#E29E25"/>
<path d="M114.221 130.237C114.175 130.41 113.907 130.486 113.619 130.409C113.331 130.332 113.138 130.132 113.184 129.959C113.231 129.786 113.498 129.71 113.786 129.787C114.07 129.863 114.267 130.064 114.221 130.237Z" fill="#E29E25"/>
<path d="M82.3186 109.132C82.7764 109.255 83.1853 109.215 83.2313 109.044C83.2773 108.872 82.9431 108.633 82.4853 108.51C82.0274 108.388 81.6185 108.428 81.5725 108.599C81.5265 108.771 81.8608 109.01 82.3186 109.132Z" fill="#E29E25"/>
</svg>
