<svg width="95" height="179" viewBox="0 0 95 179" fill="none" xmlns="http://www.w3.org/2000/svg">
<path d="M8.15914 131.42C11.8899 126.685 12.4638 123.468 12.2845 122.452C32.4323 122.273 73.876 121.914 78.4676 121.914C78.4676 130.882 87.9341 136.98 89.4084 143.078C93.3549 159.4 80.2611 174.646 52.8193 178.413C25.3774 182.179 4.03362 167.113 0.984586 155.813C-2.35504 143.437 3.49591 137.339 8.15914 131.42Z" fill="#FF4415"/>
<path d="M78.4675 121.914C78.4675 130.882 87.9341 136.98 89.4084 143.078C90.3336 146.905 90.322 150.673 89.4084 154.248C18.5851 184.369 27.5052 145.435 40.8179 122.203C58.2993 122.054 75.595 121.914 78.4675 121.914Z" fill="#FF6842"/>
<path d="M78.4669 121.914C78.4669 130.882 87.9334 136.98 89.4077 143.078C90.333 146.905 90.3214 150.673 89.4077 154.248C84.9559 158.37 72.1344 164.141 56.4636 154.248C40.7928 144.354 56.751 128.621 66.6891 121.991C72.7511 121.944 77.1424 121.914 78.4669 121.914Z" fill="#FF7F60"/>
<path d="M82.4304 131.42C78.6997 126.684 78.337 123.032 78.5163 122.016C77.4924 122.007 74.7678 122.462 73.6417 122.452C73.6417 124.095 75.8799 129.267 81.3541 135.724C86.8284 142.181 87.273 155.243 74.7178 165.384C68.6196 170.309 44.0476 185.358 7.63763 165.384C13.842 171.74 23.9994 176.522 37.7703 178.411C65.2124 182.177 86.556 167.113 89.6052 155.812C92.9448 143.437 87.0938 137.338 82.4304 131.42Z" fill="#C93612"/>
<path opacity="0.5" d="M52.8186 178.413C25.3767 182.179 4.03292 167.113 0.983887 155.813C16.9236 169.936 56.9238 189.396 89.4079 154.248C86.4248 165.919 73.8261 175.53 52.8186 178.413Z" fill="url(#paint0_linear_108_469)"/>
<path d="M82.4135 117.789C82.4135 123.633 65.7108 128.371 45.1068 128.371C24.503 128.371 7.80023 123.633 7.80023 117.789C7.80023 111.945 24.503 107.207 45.1068 107.207C65.7108 107.207 82.4135 111.945 82.4135 117.789Z" fill="#201815"/>
<path d="M67.8861 122.273C67.7154 124.962 55.2165 126.392 40.2392 125.441C25.2617 124.489 11.4649 121.539 11.6357 118.85C11.8066 116.162 25.88 114.754 40.8575 115.705C55.835 116.656 68.0568 119.585 67.8861 122.273Z" fill="#FEB618"/>
<path d="M55.4006 122.904C55.2783 124.829 46.4857 125.837 35.7615 125.156C25.0374 124.475 16.4427 122.362 16.5651 120.437C16.6874 118.512 25.4802 117.504 36.2044 118.185C46.9284 118.867 55.523 120.979 55.4006 122.904Z" fill="#FFCC5E"/>
<path d="M32.7324 113.304C29.6615 113.304 27.1722 115.793 27.1722 118.864C27.1722 119.296 27.2215 119.716 27.3146 120.119C28.9061 121.016 33.3012 122.272 38.1501 120.119C38.2433 119.716 38.2924 119.296 38.2924 118.864C38.2924 115.793 35.803 113.304 32.7324 113.304Z" fill="#FEBC2A"/>
<path d="M38.2913 118.864C38.2913 115.793 35.8019 113.304 32.7311 113.304C31.2968 113.304 29.9894 113.847 29.0032 114.739C29.4932 116.532 32.0086 120.119 38.1489 120.119C38.242 119.716 38.2913 119.296 38.2913 118.864Z" fill="#FEBC2A"/>
<path d="M32.7316 113.304C32.2999 113.304 31.8797 113.353 31.4761 113.446C30.1235 113.758 27.8892 115.847 36.1396 117.788C37.5742 118.125 38.5979 115.756 35.4221 113.997C34.6248 113.555 33.7076 113.304 32.7316 113.304Z" fill="#FFD476"/>
<path fill-rule="evenodd" clip-rule="evenodd" d="M38.8911 120.764C37.9956 121.424 36.251 121.992 33.0917 122.136C29.9301 122.28 27.8885 121.771 26.6205 121.072C25.3531 120.374 24.8571 119.484 24.7955 118.868L24.8829 118.859C24.941 119.439 25.4134 120.307 26.6631 120.995C27.9121 121.684 29.936 122.191 33.0877 122.048C36.242 121.905 37.9649 121.337 38.839 120.693C39.2752 120.372 39.4984 120.033 39.585 119.719C39.6716 119.406 39.6224 119.113 39.5073 118.883L39.586 118.844C39.7101 119.092 39.7626 119.406 39.6698 119.743C39.577 120.079 39.3398 120.434 38.8911 120.764Z" fill="#DAA01F"/>
<path fill-rule="evenodd" clip-rule="evenodd" d="M24.8574 121.319C23.4268 120.205 23.0632 118.938 23.0023 118.33L23.0899 118.321C23.1485 118.908 23.5023 120.152 24.9115 121.25C26.3213 122.348 28.7916 123.303 33.0901 123.303C36.2441 123.303 38.2823 122.602 39.4709 121.786C40.0653 121.379 40.4462 120.943 40.6489 120.553C40.8526 120.161 40.8739 119.822 40.7632 119.6L40.842 119.561C40.9703 119.818 40.9372 120.189 40.7271 120.593C40.5162 120.999 40.1241 121.445 39.5205 121.859C38.3133 122.687 36.2562 123.391 33.0901 123.391C28.7795 123.391 26.2877 122.433 24.8574 121.319Z" fill="#D39E29"/>
<path d="M53.1014 112.945C50.6672 112.945 48.6939 114.918 48.6939 117.352C48.6939 117.694 48.733 118.027 48.8067 118.347C50.0682 119.058 53.5522 120.053 57.3959 118.347C57.4698 118.027 57.5087 117.694 57.5087 117.352C57.5087 114.918 55.5355 112.945 53.1014 112.945Z" fill="#FEC13B"/>
<path d="M57.5088 117.352C57.5088 114.918 55.5356 112.945 53.1015 112.945C51.9645 112.945 50.9281 113.375 50.1463 114.082C50.5349 115.504 52.5288 118.347 57.396 118.347C57.4699 118.027 57.5088 117.694 57.5088 117.352Z" fill="#FEBC2A"/>
<path d="M53.1017 112.945C52.7594 112.945 52.4262 112.984 52.1064 113.058C51.0341 113.305 49.2631 114.96 55.803 116.499C56.9402 116.767 57.7517 114.889 55.2343 113.494C54.6024 113.144 53.8753 112.945 53.1017 112.945Z" fill="#FFDA8B"/>
<path d="M47.3179 119.402C45.8985 119.402 44.7479 120.552 44.7479 121.972C44.7479 122.171 44.7706 122.365 44.8138 122.552C45.5493 122.966 47.5806 123.546 49.8218 122.552C49.8649 122.365 49.8876 122.171 49.8876 121.972C49.8876 120.552 48.737 119.402 47.3179 119.402Z" fill="#FEC13B"/>
<path d="M49.8872 121.972C49.8872 120.552 48.7366 119.402 47.3173 119.402C46.6544 119.402 46.0502 119.653 45.5943 120.065C45.8208 120.894 46.9834 122.552 49.8214 122.552C49.8645 122.365 49.8872 122.171 49.8872 121.972Z" fill="#FECA59"/>
<path d="M47.3178 119.402C47.1182 119.402 46.9239 119.424 46.7375 119.467C46.1121 119.612 45.0796 120.577 48.8927 121.474C49.5559 121.63 50.0291 120.535 48.5611 119.722C48.1928 119.518 47.7687 119.402 47.3178 119.402Z" fill="#FFDA8B"/>
<path fill-rule="evenodd" clip-rule="evenodd" d="M44.0351 122.711C43.8457 122.576 43.7045 122.434 43.6327 122.29L43.7114 122.251C43.774 122.376 43.9018 122.508 44.0861 122.639C44.2695 122.77 44.5054 122.896 44.7792 123.012C45.3272 123.243 46.0236 123.427 46.7483 123.505C48.2021 123.661 49.747 123.39 50.4501 122.247L50.5251 122.294C49.7934 123.483 48.1995 123.75 46.7388 123.592C46.0062 123.513 45.3015 123.327 44.7451 123.093C44.467 122.976 44.225 122.846 44.0351 122.711Z" fill="#DCAF4C"/>
<path fill-rule="evenodd" clip-rule="evenodd" d="M46.944 124.289C45.4996 124.244 44.0963 123.657 43.2792 122.658L43.3474 122.603C44.1447 123.577 45.5214 124.156 46.9468 124.201C48.3712 124.245 49.8369 123.756 50.8129 122.602L50.8801 122.659C49.883 123.837 48.3892 124.334 46.944 124.289Z" fill="#D7A63A"/>
<path d="M64.8954 117.967C63.476 117.967 62.3254 119.117 62.3254 120.537C62.3254 120.736 62.3481 120.93 62.3913 121.117C63.1268 121.531 65.1582 122.112 67.3995 121.117C67.4424 120.93 67.4651 120.736 67.4651 120.537C67.4651 119.117 66.3146 117.967 64.8954 117.967Z" fill="#FEC13B"/>
<path d="M67.4655 120.537C67.4655 119.117 66.3149 117.967 64.8955 117.967C64.2327 117.967 63.6282 118.218 63.1725 118.63C63.3991 119.459 64.5616 121.117 67.3996 121.117C67.4427 120.93 67.4655 120.736 67.4655 120.537Z" fill="#FEC13B"/>
<path d="M64.8959 117.967C64.6965 117.967 64.5021 117.99 64.3157 118.033C63.6904 118.177 62.6579 119.142 66.471 120.039C67.134 120.195 67.6073 119.1 66.1394 118.287C65.771 118.083 65.347 117.967 64.8959 117.967Z" fill="#FFDA8B"/>
<path fill-rule="evenodd" clip-rule="evenodd" d="M63.6933 122.084C62.4753 121.318 61.5654 120.05 61.5654 118.863H61.6534C61.6534 120.009 62.5368 121.252 63.7402 122.01C64.9423 122.767 66.4477 123.029 67.684 122.234L67.7317 122.308C66.4564 123.128 64.9126 122.852 63.6933 122.084Z" fill="#FEBC2A"/>
<path fill-rule="evenodd" clip-rule="evenodd" d="M62.6129 122.418C61.3498 121.448 60.574 119.953 60.848 118.675L60.9341 118.693C60.6699 119.926 61.4186 121.39 62.6665 122.348C63.9122 123.305 65.6434 123.747 67.3291 122.949L67.3667 123.028C65.6446 123.844 63.8784 123.39 62.6129 122.418Z" fill="#FEBC2A"/>
<path d="M7.80023 117.789C7.80023 123.634 24.503 128.371 45.1068 128.371C52.2755 128.371 58.972 127.798 64.657 126.804C46.3624 126.804 13.5398 123.431 12.643 119.582C12.643 116.175 23.5838 117.789 23.5838 109.145C14.0345 111.061 7.80023 114.219 7.80023 117.789Z" fill="#FF4415"/>
<path d="M45.1068 128.371C65.7108 128.371 82.4136 123.633 82.4136 117.789C82.4136 116.391 81.4583 115.057 79.7232 113.835C82.294 117.963 74.5218 126.039 33.6279 126.039C31.0451 126.039 26.4536 126.418 24.4807 126.608C30.3888 127.722 37.4806 128.371 45.1068 128.371Z" fill="#EF1C17"/>
<path d="M82.4142 117.789C82.4142 116.391 81.459 115.057 79.7237 113.835C80.4684 115.031 80.5258 116.57 79.1856 118.149C78.7553 120.16 77.4519 122.454 76.854 123.349C80.3793 121.734 82.4142 119.828 82.4142 117.789Z" fill="#F95451"/>
<path fill-rule="evenodd" clip-rule="evenodd" d="M15.886 80.0541C10.4502 89.7859 8.97597 101.72 8.97597 110.488H8.44794C8.44794 101.677 9.92661 89.6406 15.425 79.7966C20.934 69.9337 30.4753 62.2828 46.5434 62.2828C61.1083 62.2828 70.147 70.631 75.4151 80.9907C80.6773 91.3391 82.1945 103.718 81.733 111.885L81.2059 111.856C81.6633 103.76 80.1556 91.4781 74.9445 81.2301C69.739 70.9934 60.8553 62.8109 46.5434 62.8109C30.6855 62.8109 21.3112 70.3411 15.886 80.0541Z" fill="white"/>
<path d="M10.6766 111.407C10.6766 112.935 9.79216 114.173 8.70107 114.173C7.60998 114.173 6.72552 112.935 6.72552 111.407C6.72552 109.88 7.60998 108.642 8.70107 108.642C9.79216 108.642 10.6766 109.88 10.6766 111.407Z" fill="#FF4415"/>
<path d="M7.91077 112.988H9.49117V117.729H7.91077V112.988Z" fill="#F95451"/>
<path d="M83.5171 111.288C83.5171 112.816 82.6326 114.054 81.5415 114.054C80.4504 114.054 79.566 112.816 79.566 111.288C79.566 109.761 80.4504 108.522 81.5415 108.522C82.6326 108.522 83.5171 109.761 83.5171 111.288Z" fill="#FF4415"/>
<path d="M80.7518 112.868H82.3322V117.609H80.7518V112.868Z" fill="#F95451"/>
<path opacity="0.08" d="M23.5386 86.6658C7.03177 100.671 10.0923 119.527 13.7373 120.735C43.8205 130.708 73.1321 124.52 79.3842 117.61C81.8332 112.972 81.0936 105.142 76.2165 100.89C70.1202 95.5756 74.4971 89.9484 76.2165 88.3852C91.2234 76.1926 98.4134 62.1242 91.2234 43.679C84.0323 25.2338 49.6429 21.326 45.7351 18.5123C41.8272 15.6986 43.0777 9.75854 44.172 8.66429C47.9235 4.75649 50.1118 6.63228 52.613 7.8828C55.1141 9.13335 55.4267 7.41385 54.4887 6.16333C42.2961 -8.37398 26.3997 6.16345 28.6968 15.386C30.9937 24.6084 33.8548 25.8181 28.6968 28.3601C23.5386 30.902 14.8933 40.8245 31.9794 46.1799C49.0655 51.5356 44.1722 69.1583 23.5386 86.6658Z" fill="white"/>
<path opacity="0.08" d="M58.0841 100.891C48.08 116.522 62.4609 124.126 63.7115 123.876C57.4145 125.196 49.1506 125.975 39.3262 125.217C22.6004 111.715 30.6357 97.2955 35.2621 93.0749C69.0261 62.2734 48.3925 43.2103 43.7031 40.7094C39.0136 38.2083 29.6205 21.4825 35.5747 9.60266C41.529 -2.27732 51.9877 5.53844 53.2383 7.41422C45.8914 2.56845 42.6088 4.60055 41.202 6.1637C30.8853 22.4205 48.7051 38.8337 56.052 43.6794C83.4071 63.5313 68.0883 85.2591 58.0841 100.891Z" fill="#FDFDFD"/>
<path opacity="0.08" d="M58.0839 100.89C48.0796 116.522 62.4605 124.126 63.7111 123.876C56.083 125.507 47.2981 125.593 43.859 125.432C40.8369 118.971 38.6067 103.266 54.4883 88.385C60.1156 83.6956 67.7748 63.2181 54.4883 47.8993C41.5065 32.9317 37.1775 30.4993 38.0802 15.8149C38.0941 15.4644 38.1181 15.1129 38.1524 14.7604C38.1255 15.1189 38.1014 15.4702 38.0802 15.8149C37.576 28.5063 50.1701 39.7993 56.0516 43.6788C83.4069 63.5309 68.088 85.2585 58.0839 100.89Z" fill="#FDFDFD"/>
<defs>
<linearGradient id="paint0_linear_108_469" x1="37.7374" y1="185.957" x2="70.6312" y2="158.73" gradientUnits="userSpaceOnUse">
<stop stop-color="#F92B21"/>
<stop offset="1" stop-color="#EF5A06"/>
</linearGradient>
</defs>
</svg>
