<svg width="108" height="86" viewBox="0 0 108 86" fill="none" xmlns="http://www.w3.org/2000/svg">
<path d="M94.9806 68.107C95.627 76.2348 80.0437 84.1158 60.1723 85.7163C40.301 87.3117 23.6673 82.0174 23.0195 73.8946C22.3722 65.7668 37.9561 57.8808 57.8274 56.2853C77.6987 54.6848 94.3327 59.9793 94.9806 68.107Z" fill="#2BAA4C"/>
<path d="M60.6655 77.6288C31.27 81.0821 4.64515 60.0524 1.19341 30.6587L0 20.4977L106.435 8L107.629 18.161C111.08 47.5551 90.0514 74.1806 60.6655 77.6288Z" fill="#FFCE62"/>
<path d="M73 12L0 20.5907L1.20053 30.8361C2.62256 42.9733 7.9545 53.6888 15.7917 61.8871C18.984 62.0896 22.2412 62.0269 25.5281 61.6412C51.6241 58.5692 71.1456 37.3089 73 12Z" fill="#FDB518"/>
<path d="M95.5272 9.28996C98.4907 38.3553 77.7187 64.5299 48.7761 67.9495C36.954 69.3462 25.5792 66.7252 16 61.1772C27.1594 73.0671 43.5707 79.6816 60.9556 77.6298C90.1711 74.1768 111.063 47.5559 107.631 18.161L106.445 8L95.5272 9.28996Z" fill="#E09A00"/>
<path d="M54.6633 29.688C83.9195 26.2464 106.892 17.1043 105.973 9.26828C105.055 1.43286 80.5931 -2.12952 51.3368 1.31206C22.0806 4.75306 -0.891676 13.8953 0.0265979 21.7311C0.945455 29.5672 25.407 33.1295 54.6633 29.688Z" fill="#FAF4E4"/>
<path d="M54.2394 25.584C80.7398 22.4636 101.668 15.1953 100.984 9.35023C100.299 3.50454 78.2607 1.29566 51.7603 4.41596C25.2599 7.53626 4.3318 14.8046 5.01632 20.6503C5.70085 26.4954 27.7385 28.7043 54.2394 25.584Z" fill="#F5E2B8"/>
<path d="M54.2659 25.2421C78.8388 22.4789 98.4163 17.4445 97.9933 13.9969C97.5717 10.5496 77.3081 9.99464 52.7352 12.7578C28.1618 15.5209 8.58411 20.5559 9.00672 24.003C9.42918 27.4508 29.6925 28.0052 54.2659 25.2421Z" fill="#FF4415"/>
<path d="M48.0429 20C48.0429 20 46.4977 7.79786 61.9448 2C61.9448 2 63.6542 17.3824 48.0429 20Z" fill="#FEC460"/>
<path d="M61.2685 2.27814C61.1519 6.38328 59.5917 15.9444 48.0265 18.2473C47.958 19.3347 48.0439 20 48.0439 20C63.6458 17.3834 61.9456 2 61.9456 2C61.7169 2.093 61.4971 2.18514 61.2685 2.27814Z" fill="#E2AD51"/>
<path d="M30 23.9276C30 23.9276 32.5189 26.8736 36 23C36 23 31.8264 25.1094 31.1016 23.418L30 23.9276Z" fill="#6CAA62"/>
<path d="M60 22.5527C60 22.5527 57.6584 18.8718 54 22.8449C54 22.8449 58.2504 20.9709 58.8846 23L60 22.5527Z" fill="#6CAA62"/>
<path d="M44 16.776C44 16.776 41.658 14.9363 38 16.9221C38 16.9221 42.2504 15.9859 42.8841 17L44 16.776Z" fill="#6CAA62"/>
<path d="M80 18.295C80 18.295 82.6843 20.5475 86 17C86 17 81.9054 19.1322 81.0932 17.7668L80 18.295Z" fill="#6CAA62"/>
<path d="M66 13.295C66 13.295 68.6842 15.5475 72 12C72 12 67.9054 14.1317 67.0932 12.7663L66 13.295Z" fill="#6CAA62"/>
<path d="M44.9533 14.2189C44.9533 14.2189 27.0508 17.4664 25.1013 19.4043C23.1438 21.3523 50.2476 19.0827 46.5156 20.8C42.7835 22.5174 28.4598 22.7684 34.1546 24.5854C39.8489 26.4025 77.735 21.8262 78.9272 19.0028C80.1188 16.18 66.2617 20.2487 67.8528 17.0553C69.4452 13.8711 69.1531 11.4317 44.9533 14.2189Z" fill="#FF6038"/>
<path d="M70.9968 14.7894C70.9968 14.7894 76.7178 13.1265 79.5429 14.6278C82.3682 16.1289 71.2088 17.7101 70.2834 16.6599C69.3575 15.5981 70.9968 14.7894 70.9968 14.7894Z" fill="#C33F1D"/>
<path d="M16.8968 22.5264C16.8968 22.5264 22.0459 21.4176 24.5887 22.4185C27.1314 23.419 17.0876 24.4733 16.2547 23.7734C15.4222 23.0731 16.8968 22.5264 16.8968 22.5264Z" fill="#C43F1D"/>
<path opacity="0.57" d="M16 23.8241C19.1415 24.474 22.3398 24.6026 25.5303 24.6615C28.719 24.7001 31.9114 24.6072 35.0957 24.4348C41.467 24.1192 47.8223 23.4934 54.1564 22.6681C60.4866 21.8132 66.7939 20.8401 73.0439 19.5207C76.164 18.862 79.2766 18.133 82.3547 17.2677C85.4128 16.3941 88.4905 15.4381 91.3161 14.0183L91.4194 14.9541C88.3609 14.2736 85.157 14.0956 81.9893 13.9835C78.8144 13.8926 75.6268 13.9449 72.4371 14.0675C66.0673 14.3118 59.7087 14.9078 53.3722 15.6226C47.0297 16.368 40.7091 17.3123 34.4423 18.5634C31.3069 19.1735 28.1793 19.8535 25.0873 20.6809C21.9967 21.5177 18.9133 22.4243 16 23.8241ZM16 23.8241C18.8762 22.348 21.9506 21.3618 25.0229 20.4466C28.1074 19.55 31.2155 18.7815 34.3513 18.0904C40.6167 16.7389 46.9364 15.7035 53.2879 14.8661C59.63 14.0298 66.0112 13.4613 72.4033 13.1638C75.6 13.0196 78.8058 12.9558 82.0079 13.0332C85.2123 13.1301 88.4224 13.2773 91.6276 13.9801C91.8824 14.0389 92.0455 14.3012 91.9887 14.5706C91.9581 14.726 91.8591 14.8592 91.7325 14.9255C88.7772 16.381 85.6786 17.3198 82.5829 18.198C79.4846 19.0558 76.3521 19.7766 73.2107 20.4184C66.9281 21.7011 60.5946 22.6978 54.2416 23.4346C47.8871 24.1614 41.5041 24.7103 35.112 24.9269C31.9195 25.0198 28.7175 25.0329 25.5203 24.9148C22.3283 24.7555 19.121 24.5474 16 23.8241Z" fill="#D4918E"/>
<path opacity="0.57" d="M75 16.5947C73.2699 16.2654 71.4963 16.2078 69.7351 16.1758C67.9753 16.1529 66.2055 16.205 64.4495 16.2919C60.9247 16.4397 57.4096 16.7429 53.9168 17.1531C50.415 17.5647 46.9347 18.0747 43.4735 18.7388C41.7472 19.0705 40.0258 19.4381 38.3325 19.8763C36.6387 20.314 34.9412 20.7989 33.387 21.5145L33.3292 21.0439C35.023 21.386 36.7914 21.4812 38.5358 21.5334C40.2894 21.5846 42.0534 21.5607 43.8127 21.5009C47.3312 21.3814 50.8498 21.1057 54.3565 20.7302C57.8616 20.3461 61.3548 19.8616 64.8098 19.2259C66.5388 18.9217 68.2733 18.5801 69.9799 18.1681C71.6852 17.7472 73.3861 17.2899 75 16.5947ZM75 16.5947C73.4106 17.3328 71.7143 17.8264 70.0134 18.2838C68.311 18.7319 66.5919 19.1175 64.859 19.4684C61.3983 20.1415 57.8984 20.6447 54.3961 21.0563C50.8838 21.4597 47.3685 21.7625 43.8342 21.9115C42.0662 21.9816 40.2955 22.0245 38.5237 21.9848C36.7526 21.945 34.9766 21.8685 33.2048 21.5169C33.0665 21.4862 32.9743 21.3591 33.0064 21.227C33.0254 21.1515 33.0842 21.0806 33.1483 21.0549C34.7876 20.3291 36.4966 19.8622 38.2091 19.4217C39.9238 18.9996 41.6563 18.64 43.3927 18.3167C46.8668 17.6786 50.3695 17.1934 53.8747 16.8092C57.3904 16.4328 60.9089 16.157 64.4371 16.0363C66.2084 15.9933 67.9734 15.9791 69.7384 16.0467C71.4957 16.125 73.2752 16.2284 75 16.5947Z" fill="#D4918E"/>
<path d="M45 24.6645C45 24.6645 43.385 23.9042 41.8712 24.0101C40.3573 24.1161 40.6026 24.5505 39.6251 24.4467C38.648 24.3427 38 25 38 25L45 24.6645Z" fill="#C33F1D"/>
<path opacity="0.57" d="M39 24.9681C39.2564 24.7389 39.6404 24.5901 40.0704 24.6477C40.2668 24.7058 40.5201 24.4535 40.8391 24.288C41.1573 24.1147 41.552 23.9805 41.9503 24.0023C42.3476 24.0167 42.7051 24.1362 43 24.325C42.6371 24.2997 42.2921 24.2725 41.9761 24.3281C41.6603 24.3839 41.3783 24.4909 41.1027 24.6439L40.6503 24.8856C40.5657 24.9254 40.4637 24.967 40.3407 24.9873C40.27 24.9946 40.2091 25.0086 40.1348 24.9926C40.052 24.9779 39.9956 24.96 39.9768 24.9541C39.7056 24.8728 39.3491 24.8934 39 24.9681Z" fill="#D4918E"/>
<path d="M42.8023 20.2408C42.8023 20.2408 40.7711 19.3463 38.6938 21.0053C37.1684 22.22 38.5751 23.8273 38.9789 24.3021C39.3826 24.777 40.9852 25.7017 43.1256 24.0913C45.2666 22.4813 42.8023 20.2408 42.8023 20.2408Z" fill="#D3BC8A"/>
<path d="M39.1145 22.3845C38.8802 21.8898 39.0132 21.314 39.443 20.9459C39.9048 20.5495 40.7021 20.0342 41.7678 20.0017C43.5311 19.9355 44.4136 21.8467 43.8115 22.9019C43.209 23.9575 40.9177 24.1796 40.4647 23.8737C40.1588 23.659 39.4366 23.0763 39.1145 22.3845Z" fill="#F4E0B0"/>
<path d="M40.9966 21.4425C41.0286 21.7125 40.829 21.9646 40.558 21.9966C40.2881 22.0286 40.0351 21.8301 40.0031 21.5585C39.9725 21.2874 40.1708 21.0354 40.4417 21.0034C40.7117 20.9714 40.9646 21.1709 40.9966 21.4425Z" fill="#D3BC8A"/>
<path d="M27.0097 15.4322C27.0097 15.4322 23.6195 13.8258 20.1571 16.8071C17.6123 19.0015 19.9603 21.8949 20.6353 22.7437C21.3004 23.5936 23.9762 25.2673 27.5423 22.3629C31.1084 19.4582 27.0097 15.4322 27.0097 15.4322Z" fill="#D3BC8A"/>
<path d="M20.2047 20.1836C19.7838 19.3122 20.0258 18.3111 20.803 17.6647C21.6309 16.9701 23.0651 16.0751 24.9803 16.0026C28.1457 15.893 29.7426 19.2261 28.6644 21.0764C27.5855 22.927 23.4707 23.3158 22.6528 22.7769C22.087 22.4084 20.7849 21.3899 20.2047 20.1836Z" fill="#F4E0B0"/>
<path d="M22.5584 18.9965C22.8322 18.9647 23.0287 18.716 22.9965 18.442C22.9641 18.1672 22.716 17.9713 22.4416 18.0035C22.1678 18.0353 21.9713 18.284 22.0035 18.558C22.0359 18.8328 22.284 19.0287 22.5584 18.9965Z" fill="#D3BC8A"/>
<path d="M24.9965 21.4416C25.0287 21.716 24.8328 21.9641 24.5584 21.9965C24.284 22.0287 24.0359 21.8328 24.0035 21.5584C23.9713 21.284 24.1672 21.0359 24.4416 21.0035C24.716 20.9713 24.9641 21.1672 24.9965 21.4416Z" fill="#D3BC8A"/>
<path d="M31 20.6995C31 20.6995 30.6323 19.3119 26.8992 20.4454C23.1667 21.5789 22.5512 23.4144 21.1615 23.6795C19.7817 23.9435 27.6 25.0509 31 20.6995Z" fill="#C43F1D"/>
<path opacity="0.57" d="M30 21.0068C28.7561 21.2584 27.5669 21.5202 26.4012 21.8571C25.8212 22.0145 25.2464 22.1999 24.6821 22.3845C24.1073 22.5699 23.5711 22.794 23 23C23.847 22.3381 24.9746 21.8431 26.1815 21.5028C26.7913 21.3359 27.4156 21.1955 28.0508 21.1178C28.6956 21.0319 29.346 20.9809 30 21.0068Z" fill="#D4918E"/>
<path d="M72.8028 16.2408C72.8028 16.2408 70.7714 15.3463 68.6939 17.0053C67.1683 18.22 68.5751 19.8271 68.9789 20.3021C69.3828 20.777 70.9851 21.7017 73.1262 20.0913C75.2659 18.4721 72.8028 16.2408 72.8028 16.2408Z" fill="#D3BC8A"/>
<path d="M69.1144 18.9807C68.8801 18.3622 69.0136 17.6425 69.4427 17.1824C69.9046 16.6869 70.7019 16.0427 71.7682 16.0021C73.5308 15.9194 74.4139 18.3077 73.8113 19.6274C73.2093 20.9469 70.9175 21.2246 70.465 20.8421C70.1576 20.5635 69.4445 19.8339 69.1144 18.9807Z" fill="#F4E0B0"/>
<path d="M73.9966 19.4413C74.0286 19.7127 73.83 19.9646 73.5587 19.9966C73.2874 20.0286 73.0354 19.829 73.0034 19.5587C72.9714 19.2873 73.171 19.0354 73.4423 19.0034C73.7127 18.9714 73.966 19.171 73.9966 19.4413Z" fill="#D3BC8A"/>
<path d="M67 22C67 22 68.0968 19.3523 70.3711 19.0523C72.6543 18.7514 72.5974 19.8595 73.4219 19.5672C74.2451 19.2647 76 20.5217 76 20.5217L67 22Z" fill="#C33F1D"/>
<path opacity="0.57" d="M68 21C68.2573 20.6739 68.6574 20.3995 69.1669 20.2039C69.4166 20.1036 69.7109 20.0374 70.0115 20.0081C70.3334 19.9894 70.604 20.0062 70.8945 20.0277C71.4579 20.0781 72.01 20.2233 72.4906 20.3429C72.6197 20.3703 72.7087 20.3884 72.8126 20.3805C72.926 20.3718 73.045 20.3438 73.1831 20.3145C73.4218 20.2588 73.8333 20.2084 74 20.3893C73.4746 20.1796 73.1536 20.7355 72.4025 20.5995C71.8347 20.5245 71.3556 20.4111 70.8307 20.364C70.2943 20.3052 69.8442 20.3021 69.3613 20.4329C68.8682 20.5646 68.4267 20.7674 68 21Z" fill="#D4918E"/>
<path d="M85.0093 8.38417C85.0093 8.38417 81.6196 6.95624 78.1571 9.60627C75.6123 11.5569 77.9603 14.1288 78.6349 14.8833C79.3004 15.6388 81.9763 17.1265 85.5424 14.5448C89.1084 11.9629 85.0093 8.38417 85.0093 8.38417Z" fill="#D3BC8A"/>
<path d="M79.2046 12.1836C78.7839 11.3122 79.0258 10.3111 79.8031 9.66468C80.6309 8.97009 82.0652 8.07515 83.9804 8.00264C87.1457 7.89302 88.7427 11.2261 87.6643 13.0764C86.5855 14.927 82.4706 15.3158 81.6523 14.7769C81.0765 14.4008 79.7849 13.3899 79.2046 12.1836Z" fill="#F4E0B0"/>
<path d="M86.9965 13.4415C87.0287 13.7159 86.8328 13.9641 86.558 13.9965C86.284 14.0287 86.0353 13.8327 86.0035 13.5583C85.9713 13.2837 86.1672 13.0355 86.442 13.0033C86.716 12.9709 86.9661 13.1801 86.9965 13.4415Z" fill="#D3BC8A"/>
<path d="M77 16.5103C77 16.5103 77.6954 13.0813 80.2151 13.0021C82.7343 12.9222 82.4551 15.1816 84.1125 14.6536C85.77 14.1259 87 15.0221 87 15.0221C87 15.0221 78.479 18.1865 77 16.5103Z" fill="#C33F1D"/>
<path opacity="0.57" d="M78 15.6295C78.3341 14.9388 78.9016 14.3048 79.7109 14.0687C80.541 13.8398 81.3991 14.2152 81.9928 14.719C82.2899 14.9707 82.5562 15.226 82.8296 15.363C83.0944 15.5122 83.4213 15.4835 83.7915 15.4702C84.1489 15.4379 84.5128 15.3725 84.8995 15.3253C85.2494 15.3152 85.7352 15.2345 86 15.5647C85.6761 15.3487 85.3013 15.5005 84.9523 15.6067C84.6017 15.7022 84.245 15.8312 83.8631 15.9199C83.5016 16.0064 83.0533 16.0605 82.6199 15.879C82.2072 15.6942 81.9271 15.4087 81.6438 15.1872C81.1169 14.729 80.4541 14.4365 79.8028 14.5157C79.131 14.5968 78.5145 15.0768 78 15.6295Z" fill="#D4918E"/>
</svg>
